<svg width="117" height="76" viewBox="0 0 117 76" fill="none" xmlns="http://www.w3.org/2000/svg">
<g clip-path="url(#clip0_20_356)">
<path d="M100.507 56.5273C100.644 56.5243 100.833 56.5626 101.027 56.6445C101.173 56.706 101.298 56.7821 101.39 56.8584L101.471 56.9346C103.562 59.2209 105.643 61.5158 107.722 63.8145L113.952 70.7188C114.571 71.4064 115.182 72.0993 115.845 72.8477C112.562 72.7178 109.449 72.5849 106.34 72.4922C101.207 72.3388 96.066 72.1624 90.9219 72.1045C85.7479 72.0467 80.5668 72.0312 75.3877 72.167C72.0969 72.2533 68.8107 72.5779 65.5586 72.9531C64.5828 73.0658 63.6194 73.5068 62.7959 73.9951L62.4521 74.2061C61.129 75.0456 59.8326 75.4717 58.5566 75.5C57.2823 75.5282 55.9907 75.1603 54.6748 74.3516C52.3178 72.9023 49.7195 72.4128 47.1182 72.374C37.9999 72.2344 28.8793 72.1748 19.7598 72.1748C16.0368 72.1748 12.3082 72.3872 8.6123 72.5303C7.47118 72.5741 6.32546 72.6329 5.18164 72.6943L1.7627 72.873C1.55043 72.8828 1.34111 72.8836 1.11328 72.8828C2.62161 71.2039 4.06271 69.6045 5.49512 67.999C8.71704 64.389 11.9429 60.7792 15.1445 57.1475L15.1436 57.1465C15.3578 56.9044 15.5441 56.7528 15.7334 56.6602C15.8708 56.593 16.0283 56.5486 16.2275 56.5371H16.4414C20.7447 56.7503 24.9805 56.7461 29.2217 57.1201C36.9185 57.7983 44.4812 59.0104 51.5332 62.2285C52.5807 62.7062 53.6027 63.2483 54.6309 63.8076C55.3986 64.2252 56.1731 64.6539 56.957 65.0674L57.7441 65.4746C57.9821 65.5953 58.2754 65.6485 58.5371 65.6514C58.7902 65.6541 59.1091 65.6105 59.3623 65.4453H59.3633C64.4884 62.0912 70.1782 60.1588 76.1543 58.8564C81.3357 57.7283 86.5744 57.0587 91.874 56.8564C94.7649 56.7464 97.6299 56.591 100.507 56.5273ZM100.375 58.2051C99.5591 57.7812 98.6368 57.6604 97.5596 57.8955L97.3438 57.9473C97.3398 57.9477 97.3235 57.9493 97.2842 57.9482C97.2566 57.9475 97.2324 57.9461 97.1924 57.9443C97.1567 57.9428 97.1106 57.9417 97.0625 57.9424C90.1666 58.0482 83.2633 58.357 76.418 59.5703C70.1289 60.6842 64.1212 62.6035 58.7773 66.3418H58.7764C58.7717 66.3441 58.7485 66.3549 58.6973 66.3643C58.6361 66.3753 58.556 66.3804 58.4639 66.375C58.2722 66.3637 58.0896 66.3135 57.9854 66.2598H57.9863C57.5778 66.0469 57.1877 65.7868 56.7764 65.5059C56.3724 65.23 55.9433 64.9309 55.4893 64.6748H55.4883C48.4752 60.7154 40.7651 59.3319 32.9775 58.6201C30.7365 58.4153 28.4856 58.3406 26.2529 58.2637C24.0151 58.1866 21.7944 58.1071 19.5898 57.8926H19.5889C18.41 57.7785 17.4192 57.8886 16.542 58.3008C15.6656 58.7127 14.9554 59.4015 14.2939 60.3467C12.3228 63.1639 10.0937 65.7786 7.80762 68.6738H7.54785V70.6191L8.29004 69.6758C8.48775 69.6781 8.6335 69.681 8.7627 69.6729H8.76758C13.4825 69.328 18.1294 68.8038 22.8086 68.6826C29.8953 68.4991 36.9555 68.3591 43.9893 69.1777C48.332 69.6842 52.5301 70.4642 56.4277 72.376C57.6286 72.9657 58.7966 72.9501 59.9941 72.4297V72.4287C61.2044 71.9007 62.4062 71.3917 63.6357 70.9912C69.0332 69.2322 74.6597 68.7962 80.3301 68.6709C86.0117 68.5456 91.7037 68.7189 97.4092 68.8506C99.7719 68.906 102.106 69.1893 104.512 69.375C105.866 69.4807 107.215 69.5921 108.747 69.7139L109.877 69.8037L109.182 68.9092C106.854 65.913 104.585 63.1854 102.538 60.2812C101.914 59.3954 101.226 58.6473 100.375 58.2051Z" fill="#2786FF" stroke="#2786FF"/>
<path d="M58.5344 0.967773C60.3229 3.91048 62.0797 6.68394 63.6399 9.57617H63.6409C63.7806 9.83485 63.8223 10.2108 63.7922 10.7109C63.7609 11.233 63.6727 11.698 63.6165 12.2588C63.2704 15.7094 62.8722 19.1547 62.4758 22.6045C62.1109 25.7768 61.7048 28.979 61.3489 32.1602C60.9764 35.4799 60.6451 38.8129 60.2893 42.1299C60.1964 42.9905 60.0873 43.8437 59.9836 44.6846H57.0852C56.9174 43.1903 56.76 41.7611 56.595 40.334C56.1486 36.4879 55.6912 32.6488 55.2551 28.8057C54.9569 26.1793 54.7057 23.6499 54.4084 21.0127C54.2252 19.3853 54.0391 17.7578 53.8499 16.1309L53.2727 11.252C53.1855 10.5157 53.2229 9.89875 53.5247 9.28809L53.6711 9.02637C55.3142 6.38727 56.8953 3.70653 58.5344 0.967773Z" fill="#2786FF" stroke="#2786FF"/>
<path d="M79.1729 20.3164C80.6361 22.1397 81.9998 23.8213 83.3066 25.5459C83.3069 25.5482 83.3073 25.5509 83.3076 25.5537C83.3117 25.5928 83.3106 25.6541 83.2988 25.7334C83.2806 25.8569 83.2434 25.979 83.2041 26.0693L83.165 26.1475C81.4501 29.0492 79.696 31.9268 77.9482 34.8135C75.457 38.9274 72.9607 43.0381 70.4199 47.2305C69.5674 46.8057 68.7716 46.4092 67.9053 45.9775C71.6511 37.4471 75.3824 28.9504 79.1729 20.3164Z" fill="#2786FF" stroke="#2786FF"/>
<path d="M49.151 45.9443C48.315 46.3832 47.5466 46.7782 46.8024 47.1982C46.7555 47.2246 46.7211 47.2365 46.6989 47.2441C46.681 47.2203 46.656 47.1828 46.6227 47.1221C46.5975 47.0762 46.5768 47.0373 46.5465 46.9805L46.4498 46.8115C43.752 42.4904 41.0642 38.163 38.3883 33.8281C36.7563 31.1842 35.1368 28.5334 33.5455 25.8672C33.5376 25.8538 33.5216 25.82 33.5065 25.7656C33.4919 25.7132 33.4816 25.6539 33.4772 25.5967C33.4729 25.5401 33.4748 25.4961 33.4791 25.4688C34.8019 23.7827 36.1649 22.1288 37.6002 20.373C41.4709 28.9439 45.3034 37.4268 49.151 45.9443Z" fill="#2786FF" stroke="#2786FF"/>
<path d="M99.6505 41.7109C97.372 42.9103 95.1337 44.0921 92.8927 45.2676C88.4474 47.5952 83.9899 49.9129 79.5499 52.2559C79.319 52.3774 79.188 52.4138 79.0997 52.4141C79.0545 52.4142 78.992 52.4061 78.8995 52.3428L78.796 52.2588C78.2203 51.7284 77.6155 51.2176 76.9562 50.6533C83.1725 45.7329 89.2468 40.9249 95.4532 36.0127C96.8648 37.9283 98.2382 39.7932 99.6505 41.7109Z" fill="#2786FF" stroke="#2786FF"/>
<path d="M39.8423 50.7383C39.7022 50.8656 39.5877 50.9722 39.4702 51.0762L39.4692 51.0771C38.8866 51.5952 38.308 51.8695 37.7319 51.9424C37.1562 52.0151 36.5329 51.8929 35.8521 51.5361C29.6508 48.2741 23.4537 45.0057 17.1714 41.6953C18.5597 39.8124 19.9229 37.9665 21.3423 36.04C27.5418 40.965 33.6505 45.8191 39.8423 50.7383Z" fill="#2786FF" stroke="#2786FF"/>
</g>
<defs>
<clipPath id="clip0_20_356">
<rect width="117" height="76" fill="white"/>
</clipPath>
</defs>
</svg>
