<svg width="75" height="70" viewBox="0 0 55 65" fill="none" xmlns="http://www.w3.org/2000/svg">
<rect width="60.8" height="60.8013" rx="12.8" fill="#F8F8F8"/>
<path d="M27.4857 33.552C29.4389 35.377 33.4937 36.921 36.4866 35.8142C50.6291 30.5843 48.4769 10.9608 36.3461 8.33785C25.0586 5.89745 14.3624 17.2543 14.514 23.8835C18.7737 13.1409 31.0161 6.58369 39.5807 13.6489C48.3543 20.8866 39.8288 35.2986 32.909 33.7019C42.8742 27.4876 40.0727 16.6175 33.958 15.1789C20.1776 12.077 6.73647 35.9375 21.8199 52.8013C20.6487 49.3252 18.3131 32.1685 27.0542 25.7593C29.7132 23.8097 31.4915 26.3981 28.8049 28.7551C30.329 29.022 34.2276 24.8379 31.0035 22.6843C24.5175 20.9317 17.1006 31.7658 19.2448 46.8335C12.4842 29.5768 25.332 17.6729 30.9303 17.8125C40.8378 18.4134 37.0574 32.1504 27.4857 33.552Z" fill="#ED2024"/>
</svg>
