<svg width="47" height="47" viewBox="0 0 47 47" fill="none" xmlns="http://www.w3.org/2000/svg">
<rect width="47" height="47" rx="23.5" fill="url(#paint0_linear_5_55)"/>
<rect width="47" height="47" rx="23.5" fill="url(#paint1_radial_5_55)"/>
<path fill-rule="evenodd" clip-rule="evenodd" d="M23.8615 38.292C21.0155 38.292 19.6929 37.8747 17.394 36.2056C15.9399 38.0834 11.3351 39.5508 11.1342 37.0402C11.1342 35.1555 10.7188 33.5629 10.2479 31.8242C9.68702 29.6822 9.04996 27.2968 9.04996 23.8403C9.04996 15.5852 15.7945 9.37476 23.7854 9.37476C31.7831 9.37476 38.0499 15.8912 38.0499 23.9168C38.0767 31.8183 31.7288 38.2498 23.8615 38.292ZM23.9792 16.5102C20.0877 16.3085 17.0547 19.0138 16.383 23.2562C15.8291 26.7682 16.8124 31.0453 17.6502 31.2679C18.0518 31.3652 19.0628 30.5446 19.6929 29.9117C20.7349 30.6347 21.9483 31.0688 23.2106 31.1705C27.2429 31.3653 30.6884 28.2822 30.9591 24.2368C31.1168 20.1828 28.0121 16.7491 23.9792 16.5171V16.5102Z" fill="white"/>
<defs>
<linearGradient id="paint0_linear_5_55" x1="5.53881" y1="35.7452" x2="47" y2="23.5" gradientUnits="userSpaceOnUse">
<stop stop-color="#44CCFF"/>
<stop offset="0.662" stop-color="#5533EE"/>
<stop offset="1" stop-color="#9933DD"/>
</linearGradient>
<radialGradient id="paint1_radial_5_55" cx="0" cy="0" r="1" gradientUnits="userSpaceOnUse" gradientTransform="translate(-1.11817 -20.6417) rotate(51.356) scale(57.0353 23.5)">
<stop stop-color="#0000FF"/>
<stop offset="1" stop-opacity="0"/>
</radialGradient>
</defs>
</svg>
