<?xml version="1.0" standalone="no"?>
<!DOCTYPE svg PUBLIC "-//W3C//DTD SVG 20010904//EN"
 "http://www.w3.org/TR/2001/REC-SVG-20010904/DTD/svg10.dtd">
<svg version="1.0" xmlns="http://www.w3.org/2000/svg"
 width="50pt" height="50pt" viewBox="0 0 64.000000 64.000000"
 preserveAspectRatio="xMidYMid meet">

<g transform="translate(0.000000,64.000000) scale(0.100000,-0.100000)"
fill="#000000" stroke="none">
<path d="M64 595 c-9 -23 -14 -71 -14 -145 l0 -110 93 0 c61 0 99 -5 111 -13
20 -15 105 -14 135 2 11 6 60 11 110 11 l91 0 0 110 c0 106 -15 180 -37 180
-20 0 -74 -42 -113 -89 l-43 -51 -77 0 -77 0 -43 51 c-39 47 -93 89 -113 89
-4 0 -15 -16 -23 -35z"/>
<path d="M121 320 c-44 -10 -53 -26 -46 -75 11 -72 66 -107 129 -81 35 15 66
59 66 94 0 51 -72 81 -149 62z"/>
<path d="M414 316 c-39 -17 -50 -53 -30 -101 32 -76 142 -81 172 -9 19 46 18
91 -3 103 -34 18 -107 22 -139 7z"/>
<path d="M41 242 c-2 -79 60 -162 154 -203 70 -31 180 -31 250 0 94 41 156
124 154 203 l-1 43 -9 -44 c-5 -24 -15 -54 -24 -67 -21 -33 -80 -49 -132 -35
-50 14 -61 26 -76 88 -9 37 -17 49 -34 51 -19 3 -24 -5 -38 -52 -17 -57 -30
-70 -88 -87 -42 -12 -103 6 -122 35 -9 13 -19 43 -24 67 l-9 44 -1 -43z"/>
</g>
</svg>
