<?xml version="1.0" standalone="no"?>
<!DOCTYPE svg PUBLIC "-//W3C//DTD SVG 20010904//EN"
 "http://www.w3.org/TR/2001/REC-SVG-20010904/DTD/svg10.dtd">
<svg version="1.0" xmlns="http://www.w3.org/2000/svg"
 width="60pt" height="50pt" viewBox="0 0 100 100"
 preserveAspectRatio="xMidYMid meet">

<g transform="translate(0.000000,100.000000) scale(0.100000,-0.100000)"
fill="#000000" stroke="none">
<path d="M387 984 c-94 -22 -167 -64 -237 -134 -72 -72 -112 -143 -135 -242
-39 -166 10 -333 135 -458 72 -72 143 -112 242 -135 166 -39 333 10 458 135
72 72 112 143 135 242 39 166 -10 333 -135 458 -125 125 -296 175 -463 134z
m403 -322 c0 -4 -15 -46 -34 -93 -43 -109 -50 -139 -33 -139 7 0 22 12 33 28
34 45 37 52 20 46 -24 -9 -19 1 14 34 17 17 30 39 30 49 0 11 5 24 11 30 16
16 39 5 39 -17 0 -11 5 -22 10 -25 19 -12 10 -35 -15 -41 -19 -5 -28 -17 -39
-53 -7 -25 -12 -48 -10 -50 2 -3 18 8 34 24 42 40 48 25 7 -19 -38 -40 -76
-48 -84 -16 -5 20 -5 20 -33 0 -36 -25 -60 -25 -67 0 -5 20 -5 20 -34 -1 -44
-31 -65 -22 -62 26 2 24 10 45 20 53 20 15 13 15 -21 2 -14 -5 -26 -17 -26
-26 0 -8 -13 -29 -29 -45 -35 -34 -75 -38 -91 -9 l-11 21 -26 -21 c-50 -39
-90 -16 -80 47 7 40 51 93 78 93 9 0 22 -7 29 -15 17 -20 1 -58 -35 -81 -27
-18 -33 -34 -12 -34 16 0 45 30 61 62 16 31 57 58 91 61 24 2 31 -2 33 -19 3
-21 4 -21 58 8 30 17 62 27 70 24 24 -9 1 -33 -39 -42 -18 -4 -27 -9 -20 -11
9 -3 9 -12 2 -29 -17 -46 -12 -57 16 -38 16 10 35 44 55 97 47 125 48 127 70
127 11 0 20 -4 20 -8z m-456 -48 c9 -8 16 -19 16 -24 0 -13 -30 -40 -44 -40
-9 0 -12 9 -9 24 6 31 -13 43 -27 17 -8 -15 -5 -32 10 -71 11 -28 20 -62 20
-76 0 -88 -110 -143 -172 -87 -37 33 -8 113 40 113 29 0 34 -12 9 -24 -39 -20
-31 -86 11 -86 25 0 52 31 52 60 0 15 -7 47 -15 70 -21 58 -19 90 7 117 25 27
79 31 102 7z m346 -14 c0 -12 -47 -43 -58 -38 -5 1 -3 18 5 36 11 28 16 31 33
22 11 -6 20 -15 20 -20z m-202 -247 c-4 -22 -22 -20 -26 1 -2 10 3 16 13 16
10 0 15 -7 13 -17z m47 7 c-3 -4 1 -11 7 -13 7 -3 1 -5 -14 -4 -32 2 -38 22
-8 24 11 1 18 -2 15 -7z m32 -12 c-3 -8 -6 -5 -6 6 -1 11 2 17 5 13 3 -3 4
-12 1 -19z m33 7 c0 -8 -2 -15 -4 -15 -2 0 -6 7 -10 15 -3 8 -1 15 4 15 6 0
10 -7 10 -15z m34 0 c3 -9 0 -15 -9 -15 -9 0 -12 6 -9 15 4 8 7 15 9 15 2 0 5
-7 9 -15z m29 -5 c3 -11 1 -18 -4 -14 -5 3 -9 12 -9 20 0 20 7 17 13 -6z m51
5 c3 -8 1 -15 -3 -15 -5 0 -11 7 -15 15 -3 8 -1 15 3 15 5 0 11 -7 15 -15z
m30 0 c-4 -8 -8 -15 -10 -15 -2 0 -4 7 -4 15 0 8 4 15 10 15 5 0 7 -7 4 -15z
m37 0 l9 20 -3 -20 c-2 -22 -21 -24 -23 -3 0 7 1 6 4 -2 4 -12 7 -11 13 5z
m69 -3 c0 -7 -4 -11 -9 -7 -5 3 -12 1 -16 -5 -8 -13 -25 -3 -25 15 0 10 9 14
25 13 14 -1 25 -8 25 -16z m43 11 c9 -9 -13 -34 -24 -27 -14 8 -11 34 4 34 8
0 17 -3 20 -7z"/>
<path d="M375 516 c-9 -14 -15 -31 -13 -38 3 -7 12 2 22 20 21 41 14 54 -9 18z"/>
<path d="M485 506 c-16 -37 -19 -68 -9 -79 12 -12 42 12 52 41 8 22 6 32 -9
51 l-19 23 -15 -36z"/>
<path d="M860 349 c0 -5 5 -7 10 -4 6 3 10 8 10 11 0 2 -4 4 -10 4 -5 0 -10
-5 -10 -11z"/>
</g>
</svg>
