<svg width="47" height="47" viewBox="0 0 47 47" fill="none" xmlns="http://www.w3.org/2000/svg">
<rect width="47" height="47" rx="23.5" fill="url(#paint0_linear_5_57)"/>
<path fill-rule="evenodd" clip-rule="evenodd" d="M10.8936 23.252C17.83 20.2672 22.4553 18.2995 24.7696 17.3488C31.3774 14.6343 32.7504 14.1628 33.6454 14.1472C33.8422 14.1438 34.2823 14.192 34.5674 14.4204C34.8081 14.6133 34.8743 14.8739 34.906 15.0568C34.9377 15.2397 34.9772 15.6564 34.9458 15.9819C34.5877 19.6979 33.0383 28.7154 32.2501 32.8773C31.9165 34.6383 31.2598 35.2288 30.624 35.2866C29.2423 35.4121 28.193 34.3847 26.8547 33.5182C24.7606 32.1624 23.5775 31.3184 21.5448 29.9954C19.1956 28.4665 20.7185 27.6261 22.0572 26.2528C22.4076 25.8933 28.4956 20.4242 28.6135 19.9281C28.6282 19.866 28.6419 19.6347 28.5028 19.5126C28.3636 19.3904 28.1583 19.4322 28.0101 19.4654C27.8001 19.5125 24.4546 21.6964 17.9738 26.0172C17.0242 26.6612 16.1641 26.975 15.3934 26.9585C14.5439 26.9404 12.9097 26.4841 11.6948 26.0941C10.2047 25.6157 9.02041 25.3628 9.12354 24.5503C9.17725 24.1271 9.76729 23.6944 10.8936 23.252Z" fill="white"/>
<defs>
<linearGradient id="paint0_linear_5_57" x1="2350" y1="0" x2="2350" y2="4665.14" gradientUnits="userSpaceOnUse">
<stop stop-color="#2AABEE"/>
<stop offset="1" stop-color="#229ED9"/>
</linearGradient>
</defs>
</svg>
