<?xml version="1.0" standalone="no"?>
<!DOCTYPE svg PUBLIC "-//W3C//DTD SVG 20010904//EN"
 "http://www.w3.org/TR/2001/REC-SVG-20010904/DTD/svg10.dtd">
<svg version="1.0" xmlns="http://www.w3.org/2000/svg"
 width="50pt" height="50pt" viewBox="0 0 118 135"
 preserveAspectRatio="xMidYMid meet">

<g transform="translate(0.000000,135.000000) scale(0.100000,-0.100000)"
fill="#000000" stroke="none">
<path d="M30 1311 c0 -10 106 -342 120 -376 5 -11 63 -189 130 -395 67 -206
129 -397 139 -425 l18 -50 113 -3 c88 -2 111 0 108 10 -3 7 -35 107 -72 223
-38 116 -74 224 -82 242 -8 17 -14 35 -14 40 0 4 -52 168 -116 363 -63 195
-117 361 -119 368 -5 14 -225 18 -225 3z"/>
<path d="M805 1023 c-53 -164 -107 -328 -120 -364 l-24 -66 36 -109 c20 -60
46 -138 58 -173 l22 -64 35 109 c20 60 89 271 153 469 64 198 125 384 136 413
30 85 34 82 -90 82 l-109 0 -97 -297z"/>
</g>
</svg>
